<svg width="48" height="48" viewBox="0 0 48 48" fill="none" xmlns="http://www.w3.org/2000/svg">
<path d="M39 18C37.454 18.0412 35.9545 17.4682 34.83 16.4064C33.7055 15.3445 33.0475 13.8804 33 12.3345C33.028 11.2308 33.3676 10.1575 33.9795 9.23852L37.755 3.62102C37.9001 3.42788 38.0881 3.27113 38.3042 3.16318C38.5202 3.05522 38.7585 2.99902 39 2.99902C39.2416 2.99902 39.4798 3.05522 39.6959 3.16318C39.912 3.27113 40.1 3.42788 40.245 3.62102L43.9725 9.16502C44.6096 10.1022 44.9661 11.2018 45 12.3345C44.9526 13.8804 44.2946 15.3445 43.17 16.4064C42.0455 17.4682 40.5461 18.0412 39 18V18ZM39 7.14452L36.516 10.839C36.2056 11.2785 36.0266 11.7972 36 12.3345C36.0871 13.069 36.4406 13.7461 36.9935 14.2373C37.5464 14.7286 38.2604 14.9999 39 14.9999C39.7397 14.9999 40.4536 14.7286 41.0065 14.2373C41.5595 13.7461 41.913 13.069 42 12.3345C41.9664 11.768 41.7712 11.223 41.4375 10.764L39 7.14452ZM35.25 45H12.75C10.3336 45.0026 8.00244 44.1072 6.20905 42.4877C4.41566 40.8682 3.28802 38.6401 3.04502 36.2359C2.80202 33.8317 3.46101 31.423 4.89406 29.4774C6.32711 27.5318 8.43197 26.188 10.8 25.707C11.4392 22.6797 13.0995 19.9641 15.5027 18.0153C17.9059 16.0665 20.906 15.003 24 15.003C27.0941 15.003 30.0941 16.0665 32.4973 18.0153C34.9005 19.9641 36.5609 22.6797 37.2 25.707C39.5681 26.188 41.673 27.5318 43.106 29.4774C44.539 31.423 45.198 33.8317 44.955 36.2359C44.712 38.6401 43.5844 40.8682 41.791 42.4877C39.9976 44.1072 37.6665 45.0026 35.25 45V45ZM24 18C21.4391 18.0024 18.9673 18.9407 17.0498 20.6383C15.1323 22.3359 13.9013 24.6757 13.5885 27.2175L13.4385 28.4355L12.216 28.5315C10.4749 28.6641 8.85307 29.4668 7.69175 30.7708C6.53043 32.0748 5.92016 33.7784 5.98934 35.5232C6.05851 37.268 6.80175 38.918 8.06266 40.1259C9.32358 41.3339 11.0039 42.0057 12.75 42H35.25C36.9962 42.0057 38.6765 41.3339 39.9374 40.1259C41.1983 38.918 41.9416 37.268 42.0107 35.5232C42.0799 33.7784 41.4696 32.0748 40.3083 30.7708C39.147 29.4668 37.5252 28.6641 35.784 28.5315L34.5615 28.4355L34.413 27.2175C34.0996 24.6757 32.8682 22.3361 30.9506 20.6386C29.0329 18.9411 26.5611 18.0027 24 18V18Z" fill="black"/>
</svg>
