<svg width="48" height="48" viewBox="0 0 48 48" fill="none" xmlns="http://www.w3.org/2000/svg">
<path fill-rule="evenodd" clip-rule="evenodd" d="M35.0681 20.1201C34.8475 19.3982 34.3629 18.7861 33.7109 18.4057C33.0589 18.0253 32.2875 17.9047 31.5506 18.0678C30.8136 18.231 30.1652 18.666 29.7347 19.286C29.3043 19.9061 29.1234 20.6656 29.2281 21.4131C29.2351 21.4651 29.2471 21.5171 29.2621 21.5681C29.5851 22.6221 30.0271 23.7081 30.4321 24.6941C29.0231 24.5961 27.6301 24.5001 27.4121 24.5001C26.9841 24.5001 26.6461 24.5931 26.5561 24.6181L26.5521 24.6191C26.4425 24.6496 26.334 24.6843 26.2271 24.7231C26.0811 24.7761 25.9231 24.8401 25.8091 24.8861L25.7241 24.9211C25.4911 25.0161 25.2591 25.1101 25.0031 25.2031C24.3411 25.4431 23.9431 25.5081 23.8111 25.5031C23.6971 25.4981 23.3441 25.4191 22.7731 25.1931C22.5511 25.1031 22.3521 25.0161 22.1531 24.9301L22.0861 24.9001C21.9921 24.8591 21.8561 24.8001 21.7321 24.7501C21.636 24.7122 21.5386 24.6778 21.4401 24.6471C21.135 24.5505 20.817 24.501 20.4971 24.5001C20.3151 24.5001 18.8231 24.5961 17.2971 24.6941L17.3571 24.5691V24.5681L17.8801 23.4701C17.9331 23.3571 17.9911 23.2431 18.0581 23.1121L18.0751 23.0781C18.1451 22.9381 18.2251 22.7821 18.3001 22.6201C18.4765 22.2557 18.6017 21.8687 18.6721 21.4701C18.7338 21.081 18.7183 20.6835 18.6264 20.3004C18.5345 19.9173 18.3681 19.556 18.1366 19.2373C17.9051 18.9185 17.6131 18.6484 17.2772 18.4425C16.9413 18.2366 16.5682 18.0988 16.1791 18.0371C14.6591 17.7961 13.4221 18.7571 12.9031 19.9451C12.487 20.8785 12.0492 21.8021 11.5901 22.7151L11.3501 23.2061C10.8101 24.3041 10.2681 25.4361 9.80608 26.6101C9.73922 26.7763 9.68114 26.9458 9.63208 27.1181L9.63108 27.1211C9.61008 27.1961 9.53108 27.4771 9.51408 27.8311C9.49221 28.2391 9.55369 28.6473 9.69479 29.0308C9.83588 29.4142 10.0536 29.7649 10.3347 30.0615C10.6158 30.358 10.9544 30.5942 11.3298 30.7556C11.7052 30.9169 12.1095 31.0001 12.5181 31.0001C12.7181 31.0011 14.3761 30.8951 15.9971 30.7901L17.0001 30.7261V31.9931L14.3881 33.6591C13.8747 33.9862 13.4731 34.4618 13.2364 35.0227C12.9997 35.5835 12.9393 36.2031 13.0631 36.7991L14.0631 41.6111C14.2201 42.3638 14.6601 43.0275 15.2923 43.4652C15.9246 43.9028 16.7007 44.081 17.4605 43.963C18.2203 43.8449 18.9058 43.4396 19.3754 42.8307C19.845 42.2219 20.0629 41.456 19.9841 40.6911L19.7391 38.3371L20.8391 38.0011H27.3771L28.2661 38.2911L28.0161 40.6911C27.9373 41.456 28.1552 42.2219 28.6248 42.8307C29.0944 43.4396 29.7799 43.8449 30.5397 43.963C31.2995 44.081 32.0756 43.9028 32.7078 43.4652C33.34 43.0275 33.7801 42.3638 33.9371 41.6111L34.9371 36.7991C35.0565 36.2241 35.0046 35.6268 34.7877 35.081C34.5708 34.5353 34.1986 34.0652 33.7171 33.7291L31.0001 31.8311V30.7461L31.6501 30.7921C33.1201 30.8941 34.6371 30.9991 34.8591 30.9991C35.6077 30.9996 36.3296 30.7211 36.8839 30.218C37.4382 29.7149 37.7852 29.0232 37.8571 28.2781C37.8991 27.8581 37.8411 27.5181 37.8261 27.4261V27.4231M22.0351 27.0501C22.6301 27.2861 23.2521 27.4801 23.7291 27.5001C24.2791 27.5221 24.9931 27.3321 25.6841 27.0821C25.949 26.9853 26.2118 26.8827 26.4721 26.7741L26.5621 26.7381C26.8321 26.6281 27.1141 26.4991 27.4121 26.4991H27.4151L27.5021 26.5031L27.7491 26.5171C27.9531 26.5291 28.2261 26.5471 28.5441 26.5681L30.7911 26.7221L31.8911 26.7991C32.0597 26.8107 32.2286 26.7794 32.3818 26.708C32.5351 26.6367 32.6678 26.5276 32.7675 26.3911C32.8671 26.2546 32.9306 26.095 32.9518 25.9273C32.9731 25.7596 32.9515 25.5892 32.8891 25.4321L32.6971 24.9511C32.5699 24.6337 32.4409 24.317 32.3101 24.0011C31.9101 23.0271 31.5061 22.0431 31.2021 21.0691C31.1848 20.8231 31.259 20.5794 31.4104 20.3848C31.5619 20.1902 31.7799 20.0584 32.0226 20.0147C32.2653 19.9711 32.5156 20.0186 32.7253 20.1483C32.9351 20.2779 33.0896 20.4805 33.1591 20.7171L33.1811 20.7851C33.4941 21.6291 33.8871 22.4941 34.2641 23.3251C34.4251 23.6801 34.5841 24.0291 34.7321 24.3681C35.2441 25.5381 35.6661 26.6481 35.8531 27.7561V27.7591C35.8601 27.7991 35.8821 27.9281 35.8671 28.0791C35.8446 28.3307 35.7286 28.5648 35.542 28.7351C35.3554 28.9054 35.1117 28.9996 34.8591 28.9991H34.8561C34.4946 28.9787 34.1333 28.9567 33.7721 28.9331L31.5821 28.7831L30.0691 28.6771C29.9322 28.6676 29.7949 28.6864 29.6656 28.7323C29.5364 28.7782 29.4179 28.8501 29.3177 28.9437C29.2174 29.0373 29.1375 29.1506 29.0828 29.2764C29.0282 29.4022 29 29.5379 29.0001 29.6751V32.3521C29.0001 32.5131 29.0391 32.6718 29.1136 32.8146C29.1881 32.9573 29.296 33.08 29.4281 33.1721L32.5721 35.3661C32.7328 35.4781 32.857 35.6349 32.9293 35.817C33.0017 35.999 33.019 36.1983 32.9791 36.3901L31.9791 41.2031C31.9275 41.4548 31.7811 41.6771 31.57 41.8237C31.359 41.9704 31.0996 42.0301 30.8457 41.9906C30.5918 41.9512 30.3628 41.8154 30.2063 41.6116C30.0498 41.4078 29.9777 41.1516 30.0051 40.8961L30.3381 37.6911C30.3617 37.4636 30.3065 37.2348 30.1819 37.043C30.0572 36.8512 29.8706 36.7079 29.6531 36.6371L27.8451 36.0481C27.745 36.0155 27.6403 35.999 27.5351 35.9991H20.6901C20.5911 35.9992 20.4927 36.014 20.3981 36.0431L18.3681 36.6631C18.1463 36.7307 17.9549 36.8733 17.8267 37.0665C17.6984 37.2597 17.6413 37.4914 17.6651 37.7221L17.9951 40.8961C18.0219 41.1514 17.9495 41.4072 17.7928 41.6106C17.6362 41.814 17.4074 41.9493 17.1537 41.9887C16.9001 42.028 16.641 41.9682 16.4301 41.8218C16.2193 41.6754 16.0728 41.4535 16.0211 41.2021L15.0211 36.3901C14.9798 36.1913 14.9999 35.9847 15.0789 35.7977C15.1578 35.6107 15.2918 35.4521 15.4631 35.3431L18.5381 33.3831C18.6797 33.2927 18.7963 33.1681 18.877 33.0207C18.9578 32.8734 19.0001 32.7081 19.0001 32.5401V29.6581C19.0001 29.5214 18.9721 29.3861 18.9177 29.2607C18.8634 29.1352 18.7839 29.0222 18.6842 28.9287C18.5845 28.8351 18.4666 28.7631 18.338 28.7169C18.2093 28.6707 18.0725 28.6513 17.9361 28.6601L16.1021 28.7781L13.6941 28.9311C13.3022 28.9551 12.9102 28.9778 12.5181 28.9991C12.318 28.9991 12.1224 28.9395 11.9564 28.8278C11.7904 28.7161 11.6615 28.5574 11.5861 28.3721C11.5001 28.1621 11.5091 27.9771 11.5111 27.9311C11.5181 27.8011 11.5481 27.6911 11.5571 27.6581L11.5581 27.6541C11.5871 27.5521 11.6281 27.4391 11.6681 27.3411C12.0971 26.2481 12.6081 25.1801 13.1451 24.0861L13.3811 23.6061C13.8401 22.6741 14.3111 21.7181 14.7361 20.7441C14.9761 20.1941 15.4421 19.9441 15.8661 20.0111C15.9958 20.0317 16.1203 20.0776 16.2323 20.1463C16.3443 20.215 16.4417 20.3051 16.5188 20.4114C16.596 20.5177 16.6515 20.6382 16.6821 20.766C16.7126 20.8938 16.7177 21.0263 16.6971 21.1561C16.6546 21.3728 16.583 21.5827 16.4841 21.7801C16.4271 21.9051 16.3641 22.0301 16.2921 22.1711L16.2731 22.2081C16.2091 22.3341 16.1391 22.4731 16.0731 22.6121L15.5511 23.7061C15.2863 24.261 15.0223 24.8164 14.7591 25.3721C14.6846 25.5294 14.6524 25.7035 14.6658 25.8771C14.6792 26.0507 14.7377 26.2178 14.8354 26.3618C14.9332 26.5058 15.0669 26.6219 15.2233 26.6984C15.3797 26.7749 15.5533 26.8093 15.7271 26.7981L17.0681 26.7111C18.1053 26.6449 19.1427 26.5799 20.1801 26.5161C20.2844 26.5099 20.3887 26.5042 20.4931 26.4991H20.4971C21.0201 26.4991 21.5731 26.8661 22.0351 27.0491V27.0501ZM23.6421 4.06609C23.7647 4.01904 23.8954 3.99662 24.0268 4.00011C24.1581 4.00359 24.2874 4.03292 24.4074 4.08641C24.5274 4.1399 24.6357 4.21651 24.726 4.31185C24.8164 4.4072 24.8871 4.51942 24.9341 4.64209L26.1411 7.78609C26.2044 7.95102 26.2229 8.12977 26.1947 8.30417C26.1665 8.47857 26.0926 8.64239 25.9805 8.77895C25.8685 8.91551 25.7222 9.01995 25.5567 9.08163C25.3911 9.14331 25.2122 9.16003 25.0381 9.13009L24.0581 8.96109L24.6971 10.2671C24.8138 10.5053 24.8311 10.78 24.7452 11.0309C24.6593 11.2819 24.4772 11.4884 24.2391 11.6051C24.0009 11.7218 23.7261 11.7391 23.4752 11.6532C23.2243 11.5673 23.0178 11.3853 22.9011 11.1471L21.4011 8.08509C21.3199 7.91969 21.2861 7.73509 21.3032 7.55165C21.3203 7.36822 21.3878 7.19308 21.4982 7.04557C21.6086 6.89806 21.7575 6.78391 21.9287 6.71571C22.0998 6.64751 22.2865 6.62792 22.4681 6.65909L23.6441 6.86109L23.0671 5.35909C23.0198 5.23645 22.9973 5.10569 23.0006 4.97431C23.0039 4.84292 23.0332 4.71349 23.0866 4.5934C23.14 4.47331 23.2165 4.36493 23.3118 4.27445C23.4072 4.18397 23.5194 4.11317 23.6421 4.06609V4.06609ZM13.3001 4.28609C13.4895 4.10047 13.7448 3.99766 14.01 4.00029C14.2751 4.00291 14.5284 4.11075 14.7141 4.30009L18.6361 8.30009C18.7739 8.44072 18.8672 8.61891 18.9041 8.81233C18.9411 9.00574 18.9202 9.20577 18.8439 9.38732C18.7677 9.56888 18.6395 9.72388 18.4755 9.83289C18.3115 9.9419 18.119 10.0001 17.9221 10.0001H16.4391L17.7451 11.2881C17.929 11.4753 18.032 11.7273 18.0318 11.9898C18.0315 12.2523 17.9281 12.5041 17.7439 12.691C17.5596 12.8779 17.3092 12.9849 17.0468 12.9888C16.7843 12.9928 16.5309 12.8934 16.3411 12.7121L13.2981 9.71209C13.1568 9.57281 13.0602 9.39467 13.0205 9.20033C12.9808 9.00599 12.9998 8.80423 13.075 8.6207C13.1503 8.43717 13.2784 8.28017 13.4431 8.16966C13.6079 8.05915 13.8017 8.00013 14.0001 8.00009H15.5401L13.2861 5.70009C13.1005 5.51071 12.9976 5.25536 13.0003 4.99019C13.0029 4.72502 13.1107 4.47176 13.3001 4.28609V4.28609ZM34.7071 4.29309C34.8945 4.48062 34.9999 4.73493 34.9999 5.00009C34.9999 5.26526 34.8945 5.51956 34.7071 5.70709L32.4141 8.00009H33.9221C34.1194 8.00013 34.3122 8.05851 34.4764 8.1679C34.6405 8.27728 34.7687 8.43278 34.8447 8.61482C34.9207 8.79687 34.9412 8.99732 34.9035 9.19097C34.8658 9.38461 34.7718 9.56279 34.6331 9.70309L31.6681 12.7031C31.4816 12.8918 31.2279 12.9987 30.9626 13.0003C30.6973 13.0019 30.4423 12.898 30.2536 12.7116C30.0649 12.5251 29.958 12.2714 29.9564 12.0061C29.9548 11.7408 30.0586 11.4858 30.2451 11.2971L31.5271 10.0001H30.0001C29.8023 10 29.609 9.94138 29.4446 9.83149C29.2802 9.72161 29.1521 9.56545 29.0764 9.38275C29.0007 9.20005 28.9809 8.99901 29.0195 8.80506C29.0581 8.61111 29.1533 8.43294 29.2931 8.29309L33.2931 4.29309C33.4806 4.10562 33.7349 4.00031 34.0001 4.00031C34.2652 4.00031 34.5196 4.10562 34.7071 4.29309V4.29309Z" fill="black"/>
<path fill-rule="evenodd" clip-rule="evenodd" d="M24 21C24.663 21 25.2989 20.7366 25.7678 20.2678C26.2366 19.7989 26.5 19.163 26.5 18.5C26.5 17.837 26.2366 17.2011 25.7678 16.7322C25.2989 16.2634 24.663 16 24 16C23.337 16 22.7011 16.2634 22.2322 16.7322C21.7634 17.2011 21.5 17.837 21.5 18.5C21.5 19.163 21.7634 19.7989 22.2322 20.2678C22.7011 20.7366 23.337 21 24 21V21ZM24 23C25.1935 23 26.3381 22.5259 27.182 21.682C28.0259 20.8381 28.5 19.6935 28.5 18.5C28.5 17.3065 28.0259 16.1619 27.182 15.318C26.3381 14.4741 25.1935 14 24 14C22.8065 14 21.6619 14.4741 20.818 15.318C19.9741 16.1619 19.5 17.3065 19.5 18.5C19.5 19.6935 19.9741 20.8381 20.818 21.682C21.6619 22.5259 22.8065 23 24 23V23Z" fill="black"/>
</svg>
