<svg width="48" height="48" viewBox="0 0 48 48" fill="none" xmlns="http://www.w3.org/2000/svg">
<path d="M19.5 25.89V9C19.5 7.4087 18.8679 5.88258 17.7426 4.75736C16.6174 3.63214 15.0913 3 13.5 3C11.9087 3 10.3826 3.63214 9.25736 4.75736C8.13214 5.88258 7.5 7.4087 7.5 9V25.89C5.66552 27.1674 4.28658 28.9969 3.56388 31.1122C2.84118 33.2275 2.81244 35.5183 3.48185 37.6511C4.15125 39.7839 5.48385 41.6475 7.2857 42.9704C9.08756 44.2934 11.2646 45.0068 13.5 45.0068C15.7354 45.0068 17.9124 44.2934 19.7143 42.9704C21.5161 41.6475 22.8488 39.7839 23.5182 37.6511C24.1876 35.5183 24.1588 33.2275 23.4361 31.1122C22.7134 28.9969 21.3345 27.1674 19.5 25.89ZM13.5 6C14.2956 6 15.0587 6.31607 15.6213 6.87868C16.1839 7.44129 16.5 8.20435 16.5 9V19.5H10.5V9C10.5 8.20435 10.8161 7.44129 11.3787 6.87868C11.9413 6.31607 12.7044 6 13.5 6ZM13.5 42C11.8491 41.9999 10.2443 41.4551 8.9345 40.4501C7.62474 39.445 6.68319 38.0359 6.25589 36.4412C5.82859 34.8465 5.93941 33.1554 6.57116 31.6301C7.2029 30.1048 8.32028 28.8305 9.75 28.005L10.5 27.585V22.5H16.5V27.585L17.25 28.005C18.6797 28.8305 19.7971 30.1048 20.4288 31.6301C21.0606 33.1554 21.1714 34.8465 20.7441 36.4412C20.3168 38.0359 19.3753 39.445 18.0655 40.4501C16.7557 41.4551 15.1509 41.9999 13.5 42ZM30 6H45V9H30V6ZM30 15H40.5V18H30V15ZM30 24H45V27H30V24ZM30 33H40.5V36H30V33Z" fill="black"/>
</svg>
