<svg width="48" height="48" viewBox="0 0 48 48" fill="none" xmlns="http://www.w3.org/2000/svg">
<path d="M19.5 45C17.5116 44.9976 15.6053 44.2067 14.1993 42.8007C12.7933 41.3947 12.0024 39.4884 12 37.5H15C15 38.39 15.2639 39.26 15.7584 40.0001C16.2529 40.7401 16.9557 41.3169 17.7779 41.6575C18.6002 41.9981 19.505 42.0872 20.3779 41.9135C21.2508 41.7399 22.0526 41.3113 22.682 40.682C23.3113 40.0526 23.7399 39.2508 23.9135 38.3779C24.0872 37.505 23.9981 36.6002 23.6575 35.7779C23.3169 34.9557 22.7401 34.2529 22.0001 33.7584C21.26 33.2639 20.39 33 19.5 33H6V30H19.5C21.4891 30 23.3968 30.7902 24.8033 32.1967C26.2098 33.6032 27 35.5109 27 37.5C27 39.4891 26.2098 41.3968 24.8033 42.8033C23.3968 44.2098 21.4891 45 19.5 45Z" fill="black"/>
<path d="M37.5 37.5C35.5116 37.4976 33.6053 36.7067 32.1993 35.3007C30.7933 33.8947 30.0024 31.9884 30 30H33C33 30.89 33.2639 31.76 33.7584 32.5001C34.2529 33.2401 34.9557 33.8169 35.7779 34.1575C36.6002 34.4981 37.505 34.5872 38.3779 34.4135C39.2508 34.2399 40.0526 33.8113 40.682 33.182C41.3113 32.5526 41.7399 31.7508 41.9135 30.8779C42.0872 30.005 41.9981 29.1002 41.6575 28.2779C41.3169 27.4557 40.7401 26.7529 40.0001 26.2584C39.26 25.7639 38.39 25.5 37.5 25.5H3V22.5H37.5C39.4891 22.5 41.3968 23.2902 42.8033 24.6967C44.2098 26.1032 45 28.0109 45 30C45 31.9891 44.2098 33.8968 42.8033 35.3033C41.3968 36.7098 39.4891 37.5 37.5 37.5ZM31.5 18H9V15H31.5C32.39 15 33.26 14.7361 34.0001 14.2416C34.7401 13.7472 35.3169 13.0443 35.6575 12.2221C35.9981 11.3998 36.0872 10.495 35.9135 9.6221C35.7399 8.74918 35.3113 7.94736 34.682 7.31802C34.0526 6.68869 33.2508 6.2601 32.3779 6.08647C31.505 5.91284 30.6002 6.00195 29.7779 6.34255C28.9557 6.68314 28.2529 7.25992 27.7584 7.99994C27.2639 8.73996 27 9.60999 27 10.5H24C24 9.01664 24.4399 7.5666 25.264 6.33323C26.0881 5.09986 27.2594 4.13856 28.6299 3.57091C30.0003 3.00325 31.5083 2.85472 32.9632 3.14411C34.418 3.4335 35.7544 4.14781 36.8033 5.1967C37.8522 6.2456 38.5665 7.58197 38.8559 9.03683C39.1453 10.4917 38.9968 11.9997 38.4291 13.3701C37.8614 14.7406 36.9001 15.9119 35.6668 16.736C34.4334 17.5601 32.9834 18 31.5 18Z" fill="black"/>
</svg>
